<?xml version="1.0" encoding="UTF-8" standalone="no"?>
<!-- Created with Inkscape (http://www.inkscape.org/) -->

<svg
   xmlns:dc="http://purl.org/dc/elements/1.1/"
   xmlns:cc="http://creativecommons.org/ns#"
   xmlns:rdf="http://www.w3.org/1999/02/22-rdf-syntax-ns#"
   xmlns:svg="http://www.w3.org/2000/svg"
   xmlns="http://www.w3.org/2000/svg"
   xmlns:sodipodi="http://sodipodi.sourceforge.net/DTD/sodipodi-0.dtd"
   xmlns:inkscape="http://www.inkscape.org/namespaces/inkscape"
   width="16"
   height="16"
   id="svg2"
   version="1.1"
   inkscape:version="0.92.5 (2060ec1f9f, 2020-04-08)"
   sodipodi:docname="terminator_clone_horiz.svg"
   inkscape:export-filename="/home/sboddy/Development/terminator/terminator-trunk-ssh/data/icons/HighContrast/16x16/actions/terminator_horiz.png"
   inkscape:export-xdpi="90"
   inkscape:export-ydpi="90">
  <defs
     id="defs4">
    <inkscape:perspective
       sodipodi:type="inkscape:persp3d"
       inkscape:vp_x="0 : 8 : 1"
       inkscape:vp_y="0 : 1000 : 0"
       inkscape:vp_z="16 : 8 : 1"
       inkscape:persp3d-origin="8 : 5.3333333 : 1"
       id="perspective3833" />
  </defs>
  <sodipodi:namedview
     id="base"
     pagecolor="#ffffff"
     bordercolor="#666666"
     borderopacity="1.0"
     inkscape:pageopacity="0"
     inkscape:pageshadow="2"
     inkscape:zoom="22.627417"
     inkscape:cx="14.823521"
     inkscape:cy="7.1298732"
     inkscape:document-units="px"
     inkscape:current-layer="layer1"
     showgrid="true"
     inkscape:window-width="1854"
     inkscape:window-height="1122"
     inkscape:window-x="66"
     inkscape:window-y="0"
     inkscape:window-maximized="1"
     inkscape:snap-bbox="true"
     inkscape:snap-nodes="true">
    <inkscape:grid
       type="xygrid"
       id="grid2985"
       empspacing="5"
       visible="true"
       enabled="true"
       snapvisiblegridlinesonly="true" />
  </sodipodi:namedview>
  <metadata
     id="metadata7">
    <rdf:RDF>
      <cc:Work
         rdf:about="">
        <dc:format>image/svg+xml</dc:format>
        <dc:type
           rdf:resource="http://purl.org/dc/dcmitype/StillImage" />
        <dc:title></dc:title>
      </cc:Work>
    </rdf:RDF>
  </metadata>
  <g
     inkscape:label="Layer 1"
     inkscape:groupmode="layer"
     id="layer1"
     transform="translate(0,-1036.3622)">
    <rect
       style="fill:#ffffff;fill-opacity:1;stroke:none"
       id="rect3849"
       width="16"
       height="16.000017"
       x="0"
       y="1036.3622" />
    <rect
       style="fill:#000000;fill-opacity:1;stroke:none"
       id="rect3797"
       width="14"
       height="6.0000172"
       x="1"
       y="1037.3622" />
    <rect
       style="fill:#000000;fill-opacity:1;stroke:none"
       id="rect3797-5"
       width="14"
       height="5.9999828"
       x="1"
       y="1045.3622" />
    <path
       style="stroke-width:0.04419417;fill:#0000ff"
       d="M 1.0260999,3.9866706 V 1.0035639 H 8.0087794 14.991459 V 3.9866706 6.9697773 H 8.0087794 1.0260999 Z"
       id="path3786"
       inkscape:connector-curvature="0"
       transform="translate(0,1036.3622)" />
    <path
       style="fill:#000080;stroke-width:0.04419417"
       d="M 1.0260999,11.985816 V 9.0027093 h 6.9826795 6.9826796 v 2.9831067 2.983107 H 8.0087794 1.0260999 Z"
       id="path3788"
       inkscape:connector-curvature="0"
       transform="translate(0,1036.3622)" />
    <path
       style="fill:#00ffff;stroke-width:0.04419417"
       d="M 1.0260999,3.9866706 V 1.0035639 H 8.0087794 14.991459 V 3.9866706 6.9697773 H 8.0087794 1.0260999 Z"
       id="path3790"
       inkscape:connector-curvature="0"
       transform="translate(0,1036.3622)" />
    <path
       style="fill:#15539e;stroke-width:0.04419417;fill-opacity:0"
       d="M 1.0260999,11.985816 V 9.0027093 h 6.9826795 6.9826796 v 2.9831067 2.983107 H 8.0087794 1.0260999 Z"
       id="path3792"
       inkscape:connector-curvature="0"
       transform="translate(0,1036.3622)" />
    <path
       style="fill:#15539e;fill-opacity:0;stroke-width:0.04419417"
       d="M 1.0260999,11.985816 V 9.0027093 h 6.9826795 6.9826796 v 2.9831067 2.983107 H 8.0087794 1.0260999 Z"
       id="path4599"
       inkscape:connector-curvature="0"
       transform="translate(0,1036.3622)" />
    <path
       style="fill:#001553;fill-opacity:0.61960787;stroke-width:0.04419417"
       d="M 1.0260999,3.9866706 V 1.0035639 H 8.0087794 14.991459 V 3.9866706 6.9697773 H 8.0087794 1.0260999 Z"
       id="path4601"
       inkscape:connector-curvature="0"
       transform="translate(0,1036.3622)" />
    <path
       style="fill:#001553;fill-opacity:0.61960784;stroke-width:0.04419417"
       d="M 1.0260999,11.985816 V 9.0027093 h 6.9826795 6.9826796 v 2.9831067 2.983107 H 8.0087794 1.0260999 Z"
       id="path4603"
       inkscape:connector-curvature="0"
       transform="translate(0,1036.3622)" />
    <path
       style="fill:#001553;fill-opacity:0.61960784;stroke-width:0.04419417"
       d="M 1.0260999,11.985816 V 9.0027093 h 6.9826795 6.9826796 v 2.9831067 2.983107 H 8.0087794 1.0260999 Z"
       id="path4605"
       inkscape:connector-curvature="0"
       transform="translate(0,1036.3622)" />
    <path
       style="fill:#001553;fill-opacity:0.61960784;stroke-width:0.04419417"
       d="M 1.0260999,3.9866706 V 1.0035639 H 8.0087794 14.991459 V 3.9866706 6.9697773 H 8.0087794 1.0260999 Z"
       id="path4607"
       inkscape:connector-curvature="0"
       transform="translate(0,1036.3622)" />
    <path
       style="fill:#001553;fill-opacity:0.61960784;stroke-width:0.04419417"
       d="M 1.0260999,3.9866706 V 1.0035639 H 8.0087794 14.991459 V 3.9866706 6.9697773 H 8.0087794 1.0260999 Z"
       id="path4609"
       inkscape:connector-curvature="0"
       transform="translate(0,1036.3622)" />
    <path
       style="fill:#5539e0;fill-opacity:0;stroke-width:0.04419417"
       d="M 1.0260999,11.985816 V 9.0027093 h 6.9826795 6.9826796 v 2.9831067 2.983107 H 8.0087794 1.0260999 Z"
       id="path4611"
       inkscape:connector-curvature="0"
       transform="translate(0,1036.3622)" />
    <path
       style="fill:#5539e0;fill-opacity:0;stroke-width:0.04419417"
       d="M 1.0260999,3.9866706 V 1.0035639 H 8.0087794 14.991459 V 3.9866706 6.9697773 H 8.0087794 1.0260999 Z"
       id="path4613"
       inkscape:connector-curvature="0"
       transform="translate(0,1036.3622)" />
    <path
       style="fill:#5539e0;fill-opacity:0;stroke-width:0.04419417"
       d="M 1.0260999,11.985816 V 9.0027093 h 6.9826795 6.9826796 v 2.9831067 2.983107 H 8.0087794 1.0260999 Z"
       id="path4615"
       inkscape:connector-curvature="0"
       transform="translate(0,1036.3622)" />
    <path
       style="fill:#15539e;fill-opacity:0;stroke-width:0.04419417"
       d="M 1.0260999,3.9866706 V 1.0035639 H 8.0087794 14.991459 V 3.9866706 6.9697773 H 8.0087794 1.0260999 Z"
       id="path4617"
       inkscape:connector-curvature="0"
       transform="translate(0,1036.3622)" />
    <path
       style="fill:#15539e;fill-opacity:1;stroke-width:0.04419417"
       d="M 1.0260999,3.9866706 V 1.0035639 H 8.0087794 14.991459 V 3.9866706 6.9697773 H 8.0087794 1.0260999 Z"
       id="path4619"
       inkscape:connector-curvature="0"
       transform="translate(0,1036.3622)" />
    <path
       style="fill:#15539e;fill-opacity:1;stroke-width:0.04419417"
       d="M 1.0260999,11.985816 V 9.0027093 h 6.9826795 6.9826796 v 2.9831067 2.983107 H 8.0087794 1.0260999 Z"
       id="path4621"
       inkscape:connector-curvature="0"
       transform="translate(0,1036.3622)" />
  </g>
</svg>
